<?xml version="1.0" encoding="UTF-8"?>
<svg width="627px" height="484px" viewBox="0 0 627 484" version="1.1" xmlns="http://www.w3.org/2000/svg" xmlns:xlink="http://www.w3.org/1999/xlink">
    <!-- Generator: Sketch 63.1 (92452) - https://sketch.com -->
    <title>Illustration_Multiple payment</title>
    <desc>Created with Sketch.</desc>
    <defs>
        <linearGradient x1="50%" y1="0%" x2="50%" y2="100%" id="linearGradient-1">
            <stop stop-color="#FBFCFF" offset="0%"></stop>
            <stop stop-color="#E2EAFF" offset="100%"></stop>
        </linearGradient>
        <path d="M143.701551,0 L455.995368,0 L455.995368,0 L554.582483,0 C561.651728,9.35954183e-15 567.382483,5.7307552 567.382483,12.8 C567.382483,13.5898746 567.30937,14.3780536 567.164079,15.1544507 L520.66042,263.658381 C512.160592,309.079337 472.507867,342 426.298449,342 L15.4175168,342 C8.34827196,342 2.61751676,336.269245 2.61751676,329.2 C2.61751676,328.410125 2.69062992,327.621946 2.83592061,326.845549 L49.33958,78.3416194 C57.8394081,32.9206631 97.4921327,8.48853245e-15 143.701551,0 Z" id="path-2"></path>
        <linearGradient x1="50%" y1="72.2222222%" x2="100%" y2="25.0177032%" id="linearGradient-4">
            <stop stop-color="#EDF2FF" offset="0%"></stop>
            <stop stop-color="#D9E0F8" offset="100%"></stop>
        </linearGradient>
        <linearGradient x1="50%" y1="100%" x2="50%" y2="3.061617e-15%" id="linearGradient-5">
            <stop stop-color="#EDF2FF" offset="0%"></stop>
            <stop stop-color="#EDF2FF" offset="100%"></stop>
        </linearGradient>
        <path d="M320,5.68434189e-14 L320.00156,371.891191 C304.378114,382.731495 285.46252,389 265.298449,389 L0,389 L0,5.68434189e-14 L320,5.68434189e-14 Z" id="path-6"></path>
        <path d="M20,0 L200,0 C211.045695,-2.02906125e-15 220,8.954305 220,20 L220,372 L220,372 L0,372 L0,20 C-1.3527075e-15,8.954305 8.954305,2.02906125e-15 20,0 Z" id="path-8"></path>
        <filter x="-22.7%" y="-13.4%" width="163.6%" height="137.6%" filterUnits="objectBoundingBox" id="filter-9">
            <feOffset dx="20" dy="20" in="SourceAlpha" result="shadowOffsetOuter1"></feOffset>
            <feGaussianBlur stdDeviation="20" in="shadowOffsetOuter1" result="shadowBlurOuter1"></feGaussianBlur>
            <feColorMatrix values="0 0 0 0 0.611764706   0 0 0 0 0.709803922   0 0 0 0 0.968627451  0 0 0 0.4 0" type="matrix" in="shadowBlurOuter1"></feColorMatrix>
        </filter>
        <circle id="path-10" cx="470" cy="50" r="30"></circle>
        <filter x="-60.0%" y="-53.3%" width="233.3%" height="233.3%" filterUnits="objectBoundingBox" id="filter-11">
            <feOffset dx="4" dy="8" in="SourceAlpha" result="shadowOffsetOuter1"></feOffset>
            <feGaussianBlur stdDeviation="12" in="shadowOffsetOuter1" result="shadowBlurOuter1"></feGaussianBlur>
            <feColorMatrix values="0 0 0 0 0.611764706   0 0 0 0 0.709803922   0 0 0 0 0.968627451  0 0 0 0.24 0" type="matrix" in="shadowBlurOuter1"></feColorMatrix>
        </filter>
        <linearGradient x1="50%" y1="100%" x2="50%" y2="3.061617e-15%" id="linearGradient-12">
            <stop stop-color="#B3B7F4" offset="0%"></stop>
            <stop stop-color="#A7BFFB" offset="100%"></stop>
        </linearGradient>
        <linearGradient x1="50%" y1="0%" x2="50%" y2="100%" id="linearGradient-13">
            <stop stop-color="#F2F6FF" offset="0%"></stop>
            <stop stop-color="#DAE4FF" offset="100%"></stop>
        </linearGradient>
        <linearGradient x1="50%" y1="0%" x2="50%" y2="100%" id="linearGradient-14">
            <stop stop-color="#D9E2FE" offset="0%"></stop>
            <stop stop-color="#D3D8FB" offset="100%"></stop>
        </linearGradient>
        <linearGradient x1="-1.11022302e-14%" y1="50%" x2="100%" y2="50%" id="linearGradient-15">
            <stop stop-color="#B3B7F4" offset="0%"></stop>
            <stop stop-color="#DDE6FF" offset="100%"></stop>
        </linearGradient>
        <linearGradient x1="50%" y1="100%" x2="50%" y2="3.061617e-15%" id="linearGradient-16">
            <stop stop-color="#B3B7F4" offset="0%"></stop>
            <stop stop-color="#C5CBF9" offset="100%"></stop>
        </linearGradient>
        <linearGradient x1="50%" y1="0%" x2="50%" y2="100%" id="linearGradient-17">
            <stop stop-color="#F2F6FF" offset="0%"></stop>
            <stop stop-color="#DAE4FF" offset="100%"></stop>
        </linearGradient>
        <linearGradient x1="50%" y1="100%" x2="50%" y2="3.061617e-15%" id="linearGradient-18">
            <stop stop-color="#B3B7F4" offset="0%"></stop>
            <stop stop-color="#C5CBF9" offset="100%"></stop>
        </linearGradient>
        <circle id="path-19" cx="437" cy="313" r="20"></circle>
        <filter x="-90.0%" y="-80.0%" width="300.0%" height="300.0%" filterUnits="objectBoundingBox" id="filter-20">
            <feOffset dx="4" dy="8" in="SourceAlpha" result="shadowOffsetOuter1"></feOffset>
            <feGaussianBlur stdDeviation="12" in="shadowOffsetOuter1" result="shadowBlurOuter1"></feGaussianBlur>
            <feColorMatrix values="0 0 0 0 0.611764706   0 0 0 0 0.709803922   0 0 0 0 0.968627451  0 0 0 0.24 0" type="matrix" in="shadowBlurOuter1"></feColorMatrix>
        </filter>
        <linearGradient x1="50%" y1="100%" x2="50%" y2="3.061617e-15%" id="linearGradient-21">
            <stop stop-color="#B3B7F4" offset="0%"></stop>
            <stop stop-color="#A7BFFB" offset="100%"></stop>
        </linearGradient>
        <linearGradient x1="50%" y1="100%" x2="50%" y2="3.061617e-15%" id="linearGradient-22">
            <stop stop-color="#B3B7F4" offset="0%"></stop>
            <stop stop-color="#A7BFFB" offset="100%"></stop>
        </linearGradient>
        <linearGradient x1="50%" y1="0%" x2="50%" y2="100%" id="linearGradient-23">
            <stop stop-color="#F2F6FF" offset="0%"></stop>
            <stop stop-color="#DAE4FF" offset="100%"></stop>
        </linearGradient>
        <path d="M61.7947523,0.346027662 C60.9291521,-0.126248747 59.8917289,-0.119620729 59.0326131,0.362598556 C59.0326131,0.362598556 49.3413961,11.4356902 34.1889607,19.9245806 C24.0873372,25.5838408 13.457735,29.6576405 2.30015423,32.1459795 C1.36971511,32.6679694 0.79264868,33.6655502 0.79264868,34.7509573 L0.79264868,66.3492434 C0.826689232,100.477436 20.6058102,131.35272 51.1935842,145.025539 L59.0682743,148.533643 C59.8041965,148.86175 60.6422398,148.863407 61.379783,148.536957 L70.2529928,144.619547 C101.408107,131.243351 121.676763,100.069787 121.680005,65.5256592 L121.680005,34.7509573 C121.680005,33.6539503 121.088349,32.6447701 120.1417,32.1294086 C107.565052,28.936913 96.7223547,24.8597582 87.6136099,19.8979442 C73.9504928,12.4552232 61.7947523,0.346027662 61.7947523,0.346027662 Z" id="path-24"></path>
        <filter x="-41.4%" y="-33.6%" width="215.8%" height="194.1%" filterUnits="objectBoundingBox" id="filter-25">
            <feOffset dx="20" dy="20" in="SourceAlpha" result="shadowOffsetOuter1"></feOffset>
            <feGaussianBlur stdDeviation="20" in="shadowOffsetOuter1" result="shadowBlurOuter1"></feGaussianBlur>
            <feColorMatrix values="0 0 0 0 0.611764706   0 0 0 0 0.709803922   0 0 0 0 0.968627451  0 0 0 0.4 0" type="matrix" in="shadowBlurOuter1"></feColorMatrix>
        </filter>
        <linearGradient x1="34.116129%" y1="29.8082697%" x2="57.5197505%" y2="46.6250591%" id="linearGradient-26">
            <stop stop-color="#F3F6FF" offset="0%"></stop>
            <stop stop-color="#F4F6FF" offset="100%"></stop>
        </linearGradient>
        <linearGradient x1="78.9785114%" y1="16.2350076%" x2="40.1240445%" y2="94.1476768%" id="linearGradient-27">
            <stop stop-color="#A3ACF3" offset="0%"></stop>
            <stop stop-color="#757AE9" offset="100%"></stop>
        </linearGradient>
        <rect id="path-28" x="0" y="0" width="180" height="120" rx="4"></rect>
        <linearGradient x1="83.176513%" y1="55.8271012%" x2="61.0763189%" y2="25.3170826%" id="linearGradient-30">
            <stop stop-color="#4C50B1" stop-opacity="0" offset="0%"></stop>
            <stop stop-color="#F0F7FF" offset="100%"></stop>
        </linearGradient>
        <linearGradient x1="23.8337058%" y1="17.5206059%" x2="72.9373308%" y2="74.7605149%" id="linearGradient-31">
            <stop stop-color="#4C50B1" stop-opacity="0" offset="0%"></stop>
            <stop stop-color="#F0F7FF" offset="100%"></stop>
        </linearGradient>
        <path d="M1.65350421,0 L19.0646898,0 C19.7073485,0 20.3420097,0.520977761 20.4822455,1.1636364 C20.5003889,1.24678252 20.5095686,1.32968917 20.5096271,1.41093591 L20.5194782,15.0836631 C20.5198632,15.6185215 20.1297414,16 19.5823791,16 L2.17119347,16 C1.52853483,16 0.893873557,15.4790222 0.753637834,14.8363636 C0.735494366,14.7532175 0.726314726,14.6703108 0.726256191,14.5890641 L0.716405119,0.916336888 C0.716020055,0.38147853 1.10614194,0 1.65350421,0 Z" id="path-32"></path>
        <rect id="path-34" x="4" y="0" width="134" height="165" rx="4"></rect>
        <filter x="-44.8%" y="-30.3%" width="204.5%" height="184.8%" filterUnits="objectBoundingBox" id="filter-35">
            <feOffset dx="10" dy="20" in="SourceAlpha" result="shadowOffsetOuter1"></feOffset>
            <feGaussianBlur stdDeviation="20" in="shadowOffsetOuter1" result="shadowBlurOuter1"></feGaussianBlur>
            <feColorMatrix values="0 0 0 0 0.384313725   0 0 0 0 0.349019608   0 0 0 0 0.831372549  0 0 0 0.24 0" type="matrix" in="shadowBlurOuter1"></feColorMatrix>
        </filter>
        <circle id="path-36" cx="39.9999976" cy="39.9999976" r="26.6666651"></circle>
        <filter x="-75.0%" y="-63.8%" width="276.3%" height="276.3%" filterUnits="objectBoundingBox" id="filter-37">
            <feOffset dx="7" dy="13" in="SourceAlpha" result="shadowOffsetOuter1"></feOffset>
            <feGaussianBlur stdDeviation="13.5" in="shadowOffsetOuter1" result="shadowBlurOuter1"></feGaussianBlur>
            <feColorMatrix values="0 0 0 0 0.611764706   0 0 0 0 0.709803922   0 0 0 0 0.968627451  0 0 0 0.6 0" type="matrix" in="shadowBlurOuter1"></feColorMatrix>
        </filter>
        <rect id="path-38" x="0" y="0" width="198.000004" height="44.000001" rx="4.4000001"></rect>
        <filter x="-33.3%" y="-125.0%" width="177.8%" height="450.0%" filterUnits="objectBoundingBox" id="filter-39">
            <feOffset dx="11" dy="22" in="SourceAlpha" result="shadowOffsetOuter1"></feOffset>
            <feGaussianBlur stdDeviation="22" in="shadowOffsetOuter1" result="shadowBlurOuter1"></feGaussianBlur>
            <feColorMatrix values="0 0 0 0 0.611764706   0 0 0 0 0.709803922   0 0 0 0 0.968627451  0 0 0 0.24 0" type="matrix" in="shadowBlurOuter1"></feColorMatrix>
        </filter>
        <path d="M38.3060358,10.4819962 C37.0178518,53.5234008 35.2846036,81.577135 33.1062914,94.6431989 C29.8388231,114.242295 22.9346361,189.51866 22.9346361,193.93198 C22.9346361,198.345301 24.5577039,200.897445 20.8610978,197.52172 C17.1644918,194.145996 14.2886717,191.053331 10.0865599,194.648066 C10.0865599,192.051624 10.6958519,191.053331 11.1651291,185.908793 C11.6344063,180.764254 4.05929457,119.167232 8.20908991,104.760161 C10.9756201,95.1554468 8.23925684,60.2353932 0,-5.68434189e-14 L38.3060358,10.4819962 Z" id="path-40"></path>
        <path d="M40.3060358,0.481996184 C51.6845184,43.5234008 56.9512703,71.577135 56.1062914,84.6431989 C54.8388231,104.242295 56.9346361,177.51866 57.9346361,181.93198 C58.9346361,186.345301 67.0862319,189.877013 67.0862319,190.612981 C67.0862319,191.348949 64.8225989,193.664792 57.9346361,191.05357 C51.0466734,188.442347 47.6810627,184.931269 44.0865599,184.648066 C44.0865599,182.051624 44.6958519,181.053331 45.1651291,175.908793 C45.6344063,170.764254 32.0592946,109.167232 33.2090899,94.7601608 C33.9756201,85.1554468 22.9059235,53.5687265 0,-5.68434189e-14 L40.3060358,0.481996184 Z" id="path-42"></path>
        <path d="M2.10634297,2.07077029 C2.10634297,6.58368605 -3.73034936e-13,9.86887674 -3.73034936e-13,12.5620025 C-3.73034936e-13,15.2551282 1.42968967,22.4150318 1.42968967,23.5827828 C1.42968967,24.7505338 3.03942093,25.2534348 3.03942093,24.6965074 C3.03942093,24.13958 3.31986081,26.6019626 4.21251663,26.6019626 C4.8076205,26.6019626 5.21499358,26.3711876 5.43463585,25.9096375 C5.61882303,26.3711876 6.03798138,26.6019626 6.6921109,26.6019626 C7.34624043,26.6019626 7.72771267,26.2342194 7.83652763,25.4987329 C8.29118384,26.4573711 8.87359181,26.6345025 9.58375153,26.0301272 C10.6489911,25.1235642 10.2764096,16.6839151 10.2764096,14.6229588 C10.2764096,12.5620025 10.6300204,4.53018548 10.8647552,3.07137961 C11.09949,1.61257374 2.10634297,-2.44214548 2.10634297,2.07077029 Z" id="path-44"></path>
        <path d="M17.1989692,7.80658858 C23.1485405,25.1827908 28.5985791,59.8564761 29.3987742,71.1219871 C29.9322375,78.6323278 29.8656359,95.2030501 29.1989692,120.834154 C27.2522991,121.206818 25.2060879,121.194782 23.0603356,120.798048 C20.9145832,120.401314 19.2898509,119.906732 18.1861384,119.314301 C15.176005,91.6387842 13.2673482,75.5746796 12.4601681,71.1219871 C11.2493979,64.4429484 1.06924661,22.3797481 0.470620924,16.6830941 C-0.128004766,10.9864401 11.2493979,-9.56961368 17.1989692,7.80658858 Z" id="path-46"></path>
        <linearGradient x1="51.3028307%" y1="18.6140042%" x2="29.1988646%" y2="90.5765428%" id="linearGradient-48">
            <stop stop-color="#3509A3" offset="0%"></stop>
            <stop stop-color="#5636D8" stop-opacity="0" offset="100%"></stop>
        </linearGradient>
        <path d="M15.3923791,7.16704245 C9.85580028,22.8904762 -0.856675551,37.6172161 1.22909819,61.9034774 C2.61961402,78.0943183 4.87438462,103.954708 7.99340998,139.484646 C16.1137543,143.090867 26.615951,145.262652 39.5,146 C52.384049,146.737348 66.093355,146.737348 80.6279179,146 C72.340287,89.693059 67.843791,57.1405742 67.1384299,48.3425456 C65.9579519,33.6183441 63.881677,21.4600899 60.9096053,11.8677829 C34.2558404,-1.74833321 19.0834317,-3.31524671 15.3923791,7.16704245 Z" id="path-49"></path>
        <path d="M49.7771711,5.68434189e-14 C62.0098785,2.26891202 69.5139865,5.4953229 72.2894952,9.67923266 C76.1330008,15.4730824 64.5243903,38.9619761 62.120612,67.2032746 C60.6404269,84.593542 65.9310191,95.0360863 69.6326544,112.373746 C70.1418358,114.758641 51.1666184,123.647503 33.9991839,122.125079 C22.5542276,121.110129 11.4528188,118.482277 0.694957481,114.241524 C5.32225951,106.314473 8.12968842,99.245994 9.1172442,93.0360863 C10.5985779,83.7212249 12.0106544,53.4327971 9.1787971,47.522252 C1.03872181,30.5325954 5.67886343,12.6177084 11.7707218,10.8012327 C15.8319608,9.59024882 21.3387427,7.1950455 28.2910676,3.61562269 L49.7771711,5.68434189e-14 Z" id="path-51"></path>
        <linearGradient x1="57.4128898%" y1="36.3273777%" x2="-68.3549999%" y2="67.676283%" id="linearGradient-53">
            <stop stop-color="#3509A3" offset="0%"></stop>
            <stop stop-color="#5636D8" stop-opacity="0" offset="100%"></stop>
        </linearGradient>
        <linearGradient x1="51.2416011%" y1="18.6140042%" x2="30.1764618%" y2="90.5765428%" id="linearGradient-54">
            <stop stop-color="#3509A3" offset="0%"></stop>
            <stop stop-color="#5636D8" stop-opacity="0" offset="100%"></stop>
        </linearGradient>
        <path d="M60.7522893,1.32217657 C54.7779768,14.7581636 49.3372873,34.9676958 44.4302208,61.9507731 C29.8704194,51.058414 21.1306991,44.0257333 18.2110597,40.8527311 C15.045978,37.4129873 13.532437,33.7235038 12.6940624,31.6264619 C11.8556878,29.52942 9.79557772,30.4637924 8.82127771,29.06614 C8.17174437,28.1343717 5.72892059,24.2812613 1.49280639,17.5068088 C0.428320699,17.778492 0.158413745,18.6560979 0.683085528,20.1396267 C1.20775731,21.6231554 2.43502346,24.27282 4.36488398,28.0886204 C2.85108869,28.4997976 1.89372949,29.2920771 1.49280639,30.4654589 C0.891421745,32.2255316 1.266471,31.7932736 0.683085528,33.3270344 C0.0997000599,34.8607951 -0.823888521,35.4978443 1.49280639,39.0573826 C3.03726967,41.4304081 5.96325542,43.2804456 10.2707637,44.607495 C33.970663,74.6888449 48.3982143,87.0594953 53.5534174,81.7194463 C61.2862222,73.7093727 71.5566481,28.7704701 71.5566481,17.7963409 C71.5566481,7.90162846 63.1272028,-4.01890782 60.7522893,1.32217657 Z" id="path-55"></path>
    </defs>
    <g id="Page-1" stroke="none" stroke-width="1" fill="none" fill-rule="evenodd">
        <g id="Finance-Saas-Landingpage" transform="translate(-137.000000, -1672.000000)">
            <g id="Smart-Cards" transform="translate(135.000000, 1672.000000)">
                <g id="Illustration_Multiple-payment">
                    <path d="M551.576944,279.4 L406.795577,279.4 C392.455368,279.4 379.131941,284.506804 368.732881,293.137257 C358.333822,301.76771 350.859131,313.921811 348.216395,328.016403 L330.235441,423.914822 C330.094156,424.668345 330.023056,425.433346 330.023056,426.2 C330.023056,429.624165 331.410974,432.724165 333.654932,434.968124 C335.898891,437.212083 338.998891,438.6 342.423056,438.6 L487.204423,438.6 C501.544632,438.6 514.868059,433.493196 525.267119,424.862743 C535.666178,416.23229 543.140869,404.078189 545.783605,389.983597 L563.764559,294.085178 C563.905844,293.331655 563.976944,292.566654 563.976944,291.8 C563.976944,288.375835 562.589026,285.275835 560.345068,283.031876 C558.101109,280.787917 555.001109,279.4 551.576944,279.4 Z" id="Rectangle-Copy-87" stroke="#D5DFFA" stroke-width="0.8" fill-rule="nonzero"></path>
                    <g id="Group-31" transform="translate(0.000000, 47.000000)">
                        <mask id="mask-3" fill="white">
                            <use xlink:href="#path-2"></use>
                        </mask>
                        <use id="Rectangle-Copy-72" fill="url(#linearGradient-1)" fill-rule="nonzero" xlink:href="#path-2"></use>
                        <circle id="Oval-Copy-6" fill="#757AE9" opacity="0.100000001" mask="url(#mask-3)" cx="251" cy="103" r="250"></circle>
                        <circle id="Oval-Copy-7" stroke="#FFFFFF" mask="url(#mask-3)" cx="251" cy="103" r="190"></circle>
                        <circle id="Oval-Copy-8" stroke="#FFFFFF" fill="#E6E9FC" fill-rule="nonzero" mask="url(#mask-3)" cx="436" cy="61" r="5.5"></circle>
                        <circle id="Oval-Copy-9" stroke="#FFFFFF" fill="#E6E9FC" fill-rule="nonzero" mask="url(#mask-3)" cx="423" cy="184" r="8.5"></circle>
                        <g id="Group-65" mask="url(#mask-3)">
                            <g transform="translate(201.000000, 278.500000) scale(-1, 1) translate(-201.000000, -278.500000) translate(110.000000, 205.000000)">
                                <g id="Group-29" transform="translate(91.000000, 73.500000) scale(-1, 1) translate(-91.000000, -73.500000) ">
                                    <g id="Group-26" transform="translate(0.000000, 5.000000)">
                                        <path d="M83.0996975,36.0320934 C83.0996975,28.860559 62.4879743,20.6184955 49.1043418,11.2867143 C35.7207092,1.9549331 18.8997154,-4.2460557 6.08725428,3.5203293 C-6.72520686,11.2867143 0.320536681,22.2838751 30.7215408,36.0320934 C61.1225448,49.7803117 83.0996975,43.2036278 83.0996975,36.0320934 Z" id="Path-43" fill="#F6F8FF"></path>
                                        <path d="M85.4347876,105.217968 C85.2751349,65.6626561 84.4967715,42.6006978 83.0996975,36.0320934 C81.7026235,29.463489 55.8422325,19.9804128 5.51852475,7.58286486" id="Path-42" stroke="#CAD1EE" stroke-width="1.27999992"></path>
                                    </g>
                                    <g id="Group-27" transform="translate(91.831578, 0.582899)">
                                        <path d="M5.86973077,23.8237379 C7.38732347,15.0550254 14.9321965,8.30025662 28.5043498,3.55943166 C48.8625799,-3.55180577 76.4933376,0.0761726437 73.4039525,13.6915848 C70.3145673,27.3069969 43.7795869,35.9419243 28.5043498,35.9419243 C18.3208585,35.9419243 10.7759854,31.9025289 5.86973077,23.8237379 Z" id="Path-45" fill="#E9EDFA"></path>
                                        <path d="M5.86973077,23.8237379 C7.38732347,15.0550254 14.9321965,8.30025662 28.5043498,3.55943166 C48.8625799,-3.55180577 76.4933376,0.0761726437 73.4039525,13.6915848 C70.3145673,27.3069969 43.7795869,35.9419243 28.5043498,35.9419243 C18.3208585,35.9419243 10.7759854,31.9025289 5.86973077,23.8237379 Z" id="Path-45-Copy" fill="#EDF2FF"></path>
                                        <path d="M-4.41104904e-13,109.63507 C3.29507483,89.8216699 4.94261225,71.0483377 4.94261225,53.3150731 C4.94261225,26.7151762 3.66504697,25.8234053 8.94598678,19.8809594 C14.2269266,13.9385134 50.2302761,4.34588109 69.2036812,9.43115321" id="Path-44" stroke="#CAD1EE" stroke-width="1.27999992" stroke-linecap="round" stroke-linejoin="round"></path>
                                    </g>
                                    <g id="Group-25" transform="translate(23.637029, 54.748569)">
                                        <path d="M38.7327138,19.1494028 C30.7577606,15.8339156 24.25623,14.7374346 11.6310632,13.1946412 C6.72088817,12.5946185 2.05789699,12.7916926 0.694790286,15.6078006 C-1.44695754,20.0325408 1.82813766,29.0232288 4.22579479,37.0254615 C8.14943106,50.1206825 23.9657627,34.8303006 27.6817616,24.6491268 C31.3977606,14.4679529 41.1781864,-2.07830886 42.6206497,3.91510096 C44.0631131,9.90851078 41.4790892,10.1108126 38.7327138,19.1494028 Z" id="Path-47" fill="#B8C8F7"></path>
                                        <path d="M38.7327138,19.1494028 C30.7577606,15.8339156 24.25623,14.7374346 11.6310632,13.1946412 C6.72088817,12.5946185 2.05789699,12.7916926 0.694790286,15.6078006 C1.89504558,12.387547 10.5580592,4.61871436 20.1758214,2.64136682 C33.4748715,-0.0928288748 41.1781864,-2.07830886 42.6206497,3.91510096 C44.0631131,9.90851078 41.4790892,10.1108126 38.7327138,19.1494028 Z" id="Path-47-Copy" fill="#EDF2FF"></path>
                                        <path d="M47.0809149,52.9093996 C43.6761675,34.2138659 40.3981625,21.3731334 37.2469001,14.3872022 C34.0956376,7.40127093 27.9582975,3.9105632 18.8348798,3.915079" id="Path-46" stroke="#CAD1EE" stroke-width="1.27999992"></path>
                                    </g>
                                    <g id="Group-28" transform="translate(97.701309, 57.525613)">
                                        <path d="M12.6816822,1.4151594 C18.1083452,-3.62764182 63.7445431,5.83011491 75.82476,13.7029532 C87.9049768,21.5757915 87.9519506,40.7108295 56.4429107,35.0500939 C24.9338708,29.3893582 7.25501918,6.45796062 12.6816822,1.4151594 Z" id="Path-49" fill="#EDF2FF"></path>
                                        <path d="M0,51.5737095 C4.97468145,20.9558248 8.90387762,4.3886157 11.7875885,1.87208215 C16.1131549,-1.90271817 44.8443739,18.8234479 60.9086021,23.2055419 C71.6180876,26.126938 78.8374497,27.2232355 82.5666882,26.4944345" id="Path-48" stroke="#B8C0E4" stroke-width="1.27999992"></path>
                                    </g>
                                    <path d="M47.0347899,94.8579692 L123.834785,94.8579692 L123.834785,123.017968 C123.834785,135.742607 113.519427,146.057966 100.794787,146.057966 L70.0747886,146.057966 C57.3501487,146.057966 47.0347899,135.742607 47.0347899,123.017968 L47.0347899,94.8579692 L47.0347899,94.8579692 Z" id="Rectangle" fill="url(#linearGradient-4)"></path>
                                    <path d="M47.0347899,94.8579692 L103.03479,94.8579692 L103.03479,123.017968 C103.03479,135.742607 92.7194312,146.057966 79.9947913,146.057966 L70.0747886,146.057966 C57.3501487,146.057966 47.0347899,135.742607 47.0347899,123.017968 L47.0347899,94.8579692 L47.0347899,94.8579692 Z" id="Rectangle-Copy-10" fill="url(#linearGradient-5)" opacity="0.800000012"></path>
                                    <line x1="47.0347899" y1="104.857969" x2="123.834785" y2="104.857969" id="Path" stroke="#FFFFFF" stroke-width="1.27999992"></line>
                                </g>
                                <g id="Group-27" transform="translate(52.168422, 46.582899) scale(-1, 1) translate(-52.168422, -46.582899) translate(16.168422, 0.582899)">
                                    <path d="M3.86973077,23.8237379 C5.38732347,15.0550254 12.9321965,8.30025662 26.5043498,3.55943166 C46.8625799,-3.55180577 74.4933376,0.0761726437 71.4039525,13.6915848 C68.3145673,27.3069969 41.7795869,35.9419243 26.5043498,35.9419243 C16.3208585,35.9419243 8.77598543,31.9025289 3.86973077,23.8237379 Z" id="Path-45" fill="#E9EDFA"></path>
                                    <path d="M3.86973077,23.8237379 C5.38732347,15.0550254 12.9321965,8.30025662 26.5043498,3.55943166 C46.8625799,-3.55180577 74.4933376,0.0761726437 71.4039525,13.6915848 C68.3145673,27.3069969 41.7795869,35.9419243 26.5043498,35.9419243 C16.3208585,35.9419243 8.77598543,31.9025289 3.86973077,23.8237379 Z" id="Path-45-Copy" fill="#EDF2FF"></path>
                                    <path d="M0.618004201,91.2669104 C2.1677429,78.1271337 2.94261225,65.4765212 2.94261225,53.3150731 C2.94261225,26.7151762 1.66504697,25.8234053 6.94598678,19.8809594 C12.2269266,13.9385134 48.2302761,4.34588109 67.2036812,9.43115321" id="Path-44" stroke="#CAD1EE" stroke-width="1.27999992" stroke-linecap="round" stroke-linejoin="round"></path>
                                </g>
                                <g id="Group-28" transform="translate(40.798691, 76.025613) scale(-1, 1) translate(-40.798691, -76.025613) translate(0.298691, 57.525613)">
                                    <path d="M9.6816822,1.4151594 C15.1083452,-3.62764182 60.7445431,5.83011491 72.82476,13.7029532 C84.9049768,21.5757915 84.9519506,40.7108295 53.4429107,35.0500939 C21.9338708,29.3893582 4.25501918,6.45796062 9.6816822,1.4151594 Z" id="Path-49" fill="#EDF2FF"></path>
                                    <path d="M0.695448165,30.3981349 C3.96217034,13.2378455 6.65955045,3.72916123 8.78758852,1.87208215 C13.1131549,-1.90271817 41.8443739,18.8234479 57.9086021,23.2055419 C68.6180876,26.126938 75.8374497,27.2232355 79.5666882,26.4944345" id="Path-48" stroke="#B8C0E4" stroke-width="1.27999992"></path>
                                </g>
                            </g>
                        </g>
                    </g>
                    <g id="Group-45" transform="translate(404.000000, 28.000000)"></g>
                    <g id="Group-52" transform="translate(141.000000, 0.000000)">
                        <mask id="mask-7" fill="white">
                            <use xlink:href="#path-6"></use>
                        </mask>
                        <g id="Combined-Shape"></g>
                        <g id="Group-32" mask="url(#mask-7)">
                            <g transform="translate(36.000000, 17.000000)">
                                <g id="Rectangle" stroke="none" fill="none" fill-rule="nonzero">
                                    <use fill="black" fill-opacity="1" filter="url(#filter-9)" xlink:href="#path-8"></use>
                                    <use fill="#FFFFFF" xlink:href="#path-8"></use>
                                </g>
                                <path d="M47.8777224,18.8511584 C50.8427965,23.3162112 55.8466411,26 61.2065256,26 L61.2065256,26 L158.793474,26 C164.153359,26 169.157203,23.3162112 172.122278,18.8511584 L172.122278,18.8511584 L178,10 L200,10 C205.522847,10 210,14.4771525 210,20 L210,372 L10,372 L10,20 C10,14.4771525 14.4771525,10 20,10 L42,10 Z" id="Combined-Shape" stroke="none" fill="#F3F6FF" fill-rule="nonzero"></path>
                                <path d="M24,355 L196,355 C198.209139,355 200,356.790861 200,359 L200,395 L200,395 L20,395 L20,359 C20,356.790861 21.790861,355 24,355 Z" id="Rectangle-Copy-92" stroke="none" fill="#757AE9" fill-rule="nonzero" opacity="0.5"></path>
                                <g id="Group-41" opacity="0.800000012" stroke="none" stroke-width="1" fill="none" fill-rule="evenodd" transform="translate(20.000000, 209.000000)">
                                    <rect id="Rectangle" fill="#FFFFFF" fill-rule="nonzero" x="0" y="0" width="180" height="40" rx="4"></rect>
                                    <rect id="Rectangle" fill="#D1DDFF" fill-rule="nonzero" opacity="0.5" x="16" y="12" width="60" height="6"></rect>
                                    <rect id="Rectangle-Copy-85" fill="#D1DDFF" fill-rule="nonzero" opacity="0.5" x="124" y="12" width="40" height="4"></rect>
                                    <rect id="Rectangle-Copy-86" fill="#19CEAF" fill-rule="nonzero" opacity="0.5" x="134" y="20" width="30" height="8"></rect>
                                    <rect id="Rectangle-Copy-84" fill="#D1DDFF" fill-rule="nonzero" opacity="0.5" x="16" y="24" width="40" height="4"></rect>
                                </g>
                                <g id="Group-41-Copy-4" opacity="0.800000012" stroke="none" stroke-width="1" fill="none" fill-rule="evenodd" transform="translate(20.000000, 305.000000)">
                                    <rect id="Rectangle" fill="#FFFFFF" fill-rule="nonzero" x="0" y="0" width="180" height="40" rx="4"></rect>
                                    <rect id="Rectangle" fill="#D1DDFF" fill-rule="nonzero" opacity="0.5" x="16" y="12" width="60" height="6"></rect>
                                    <rect id="Rectangle-Copy-85" fill="#D1DDFF" fill-rule="nonzero" opacity="0.5" x="124" y="12" width="40" height="4"></rect>
                                    <rect id="Rectangle-Copy-86" fill="#757AE9" fill-rule="nonzero" opacity="0.5" x="134" y="20" width="30" height="8"></rect>
                                    <rect id="Rectangle-Copy-84" fill="#D1DDFF" fill-rule="nonzero" opacity="0.5" x="16" y="24" width="40" height="4"></rect>
                                </g>
                                <rect id="Rectangle" stroke="#FFFFFF" stroke-width="0.666666627" fill="#DADFFA" fill-rule="nonzero" opacity="0.5" x="19.6666667" y="256.666667" width="180.666667" height="40.6666666" rx="4"></rect>
                            </g>
                        </g>
                    </g>
                    <g id="Oval" fill-rule="nonzero">
                        <use fill="black" fill-opacity="1" filter="url(#filter-11)" xlink:href="#path-10"></use>
                        <use fill="#FFFFFF" xlink:href="#path-10"></use>
                    </g>
                    <g id="Group-58" transform="translate(453.000000, 24.000000)">
                        <path d="M13,14 L57,14 L53.101533,40.5804567 C52.8134907,42.5443814 51.1288087,44 49.1438734,44 L20.8561266,44 C18.8711913,44 17.1865093,42.5443814 16.898467,40.5804567 L13,14 L13,14 Z" id="Rectangle-Copy-102" fill="url(#linearGradient-12)" fill-rule="nonzero"></path>
                        <path d="M56.853,15 L55.68,23 L19,23 C16.790861,23 15,21.209139 15,19 C15,16.790861 16.790861,15 19,15 L56.853,15 Z" id="Combined-Shape" fill="#757AE9" fill-rule="nonzero" opacity="0.200000003"></path>
                        <path d="M3,14 L47,14 L43.101533,40.5804567 C42.8134907,42.5443814 41.1288087,44 39.1438734,44 L10.8561266,44 C8.87119133,44 7.18650926,42.5443814 6.89846699,40.5804567 L3,14 L3,14 Z" id="Rectangle-Copy-98" fill="url(#linearGradient-13)" fill-rule="nonzero"></path>
                        <path d="M46.852,15 L45.679,23 L4.32,23 L3.147,15 L46.852,15 Z" id="Combined-Shape" fill="#757AE9" fill-rule="nonzero" opacity="0.200000003"></path>
                        <path d="M18,25 L18.1479377,25 C19.1930103,25 20.0618933,25.8046127 20.1420467,26.846607 L20.846607,36.005891 C20.9250572,37.0257439 20.1618996,37.9160945 19.1420467,37.9945447 C19.0947851,37.9981802 19.0474013,38 19,38 L18.8520623,38 C17.8069897,38 16.9381067,37.1953873 16.8579533,36.153393 L16.153393,26.994109 C16.0749428,25.9742561 16.8381004,25.0839055 17.8579533,25.0054553 C17.9052149,25.0018198 17.9525987,25 18,25 Z" id="Rectangle" fill="#FFFFFF"></path>
                        <g id="Group-59" transform="translate(23.000000, 0.000000)" fill-rule="nonzero">
                            <path d="M12,0 C13.1045695,-2.02906125e-16 14,0.8954305 14,2 L14,13 C14,14.1045695 13.1045695,15 12,15 C10.8954305,15 10,14.1045695 10,13 L10,2 C10,0.8954305 10.8954305,2.02906125e-16 12,0 Z" id="Rectangle-Copy-106" fill="url(#linearGradient-14)"></path>
                            <path d="M2,0 L12,0 C13.1045695,-2.02906125e-16 14,0.8954305 14,2 C14,3.1045695 13.1045695,4 12,4 L2,4 C0.8954305,4 1.3527075e-16,3.1045695 0,2 C-1.3527075e-16,0.8954305 0.8954305,2.02906125e-16 2,0 Z" id="Rectangle-Copy-107" fill="url(#linearGradient-15)"></path>
                            <path d="M2,0 C3.1045695,-2.02906125e-16 4,0.8954305 4,2 L4,13 C4,14.1045695 3.1045695,15 2,15 C0.8954305,15 1.3527075e-16,14.1045695 0,13 L0,2 C-1.3527075e-16,0.8954305 0.8954305,2.02906125e-16 2,0 Z" id="Rectangle-Copy-105" fill="url(#linearGradient-16)"></path>
                        </g>
                        <path d="M31.8520623,25 L32,25 C33.0228658,25 33.8520623,25.8291965 33.8520623,26.8520623 C33.8520623,26.8994635 33.8502425,26.9468473 33.846607,26.994109 L33.1420467,36.153393 C33.0618933,37.1953873 32.1930103,38 31.1479377,38 L31,38 C29.9771342,38 29.1479377,37.1708035 29.1479377,36.1479377 C29.1479377,36.1005365 29.1497575,36.0531527 29.153393,36.005891 L29.8579533,26.846607 C29.9381067,25.8046127 30.8069897,25 31.8520623,25 Z" id="Rectangle-Copy-104" fill="#FFFFFF"></path>
                        <rect id="Rectangle-Copy-103" fill="url(#linearGradient-17)" fill-rule="nonzero" x="10" y="13" width="50" height="8" rx="4"></rect>
                        <rect id="Rectangle" fill="#F3F6FF" fill-rule="nonzero" x="0" y="13" width="50" height="8" rx="4"></rect>
                        <path d="M25,0 C26.1045695,-2.02906125e-16 27,0.8954305 27,2 L27,16 C27,17.1045695 26.1045695,18 25,18 C23.8954305,18 23,17.1045695 23,16 L23,2 C23,0.8954305 23.8954305,2.02906125e-16 25,0 Z" id="Rectangle-Copy-105" fill="url(#linearGradient-18)" fill-rule="nonzero"></path>
                    </g>
                    <g id="Oval-Copy-8" fill-rule="nonzero">
                        <use fill="black" fill-opacity="1" filter="url(#filter-20)" xlink:href="#path-19"></use>
                        <use fill="#FFFFFF" xlink:href="#path-19"></use>
                    </g>
                    <g id="447031" transform="translate(422.000000, 285.000000)" fill-rule="nonzero">
                        <path d="M8.44615308,1.73272018 C11.8584761,-0.221368694 19.3264566,-0.574294022 24.2958557,1.32211538 C29.4828936,3.1404098 32.5872208,8.3815993 31.5597816,14.5469483 C29.9736817,24.0635471 15.3692786,38.0344705 14.7482706,38.6245704 C14.1660121,39.1779203 13.3087349,39.1788953 12.9102011,38.6245704 C12.4858931,38.0344705 2.53846437,24.0635471 4.12456419,14.5469483 C4.78922171,10.5590031 7.05374898,6.95771864 10.138233,4.41949711 C7.85920495,3.28776646 7.29519436,2.39182414 8.44615308,1.73272018 Z M18.7659999,7.55341036 C15.0501343,7.68393858 11.5699155,10.770887 10.940572,14.5469483 C10.2975471,18.4050978 12.8704092,21.5439224 16.6760105,21.5439224 C20.4815378,21.5439224 24.1006624,18.4051728 24.7436873,14.5470233 C25.1568903,12.067805 24.2421724,9.88561405 22.5257671,8.64244715 C21.1796603,8.26706739 19.9264936,7.90383978 18.7659999,7.55341036 Z" id="Combined-Shape" fill="url(#linearGradient-21)"></path>
                        <path d="M21,4 L20.9981294,8.21024761 C20.2194164,7.98661793 19.4753936,7.76762299 18.7659999,7.55341036 C15.0501343,7.68393858 11.5699155,10.770887 10.940572,14.5469483 C10.2975471,18.4050978 12.8704092,21.5439224 16.6760105,21.5439224 C18.2081263,21.5439224 19.7100283,21.0351657 20.9996679,20.1755328 L21,23 L4.98355922,23.0000463 C4.1206899,20.0924795 3.69026665,17.1527335 4.12456419,14.5469483 C4.78922171,10.5590031 7.05374898,6.95771864 10.138233,4.41949711 C9.84858391,4.27566178 9.58663698,4.13563508 9.35239211,3.99941914 L21,4 Z" id="Combined-Shape" fill="url(#linearGradient-22)"></path>
                        <path d="M13.7599984,0.639999924 C6.19606808,0.639999924 0.0423896724,6.87864918 0.0423896724,14.5469483 C0.0423896724,24.0635471 12.3183056,38.0344705 12.8409636,38.6245704 C13.3318849,39.1788953 14.1889996,39.1779203 14.6790331,38.6245704 C15.2016911,38.0344705 27.477607,24.0635471 27.477607,14.5469483 C27.477607,6.87864918 21.3238547,0.639999924 13.7599984,0.639999924 Z M13.7599984,21.5439224 C9.95439709,21.5439224 6.85839746,18.4050978 6.85839746,14.5469483 C6.85839746,10.6887987 9.95447107,7.5500491 13.7599984,7.5500491 C17.5655256,7.5500491 20.6615253,10.6888737 20.6615253,14.5470233 C20.6615253,18.4051728 17.5655256,21.5439224 13.7599984,21.5439224 Z" id="Shape" fill="url(#linearGradient-23)"></path>
                    </g>
                    <g id="Group-10-Copy" transform="translate(448.000000, 113.000000)">
                        <g id="Combined-Shape" fill-rule="nonzero">
                            <use fill="black" fill-opacity="1" filter="url(#filter-25)" xlink:href="#path-24"></use>
                            <use fill="#FFFFFF" xlink:href="#path-24"></use>
                        </g>
                        <path d="M60.2931846,-0.000442449751 C60.8070281,-0.0249993439 61.3260763,0.0903153913 61.7947523,0.346027662 C61.7947523,0.346027662 73.9504928,12.4552232 87.6136099,19.8979442 C96.7223547,24.8597582 107.565052,28.936913 120.1417,32.1294086 C121.088349,32.6447701 121.680005,33.6539503 121.680005,34.7509573 L121.680005,34.7509573 L121.680005,65.5256592 C121.676763,100.069787 101.408107,131.243351 70.2529928,144.619547 L70.2529928,144.619547 L61.379783,148.536957 C61.0326485,148.690605 60.6632509,148.77157 60.292716,148.780023 Z" id="Combined-Shape" fill="#FFFFFF" fill-rule="nonzero"></path>
                        <path d="M60.2927254,3.00564718 C60.8165621,2.96214272 61.3499373,3.07086786 61.8285649,3.3324319 C61.8285649,3.3324319 73.4928609,14.9708464 86.6035917,22.1242094 C95.3440789,26.8931181 105.748416,30.8117614 117.816604,33.8801392 C118.72498,34.3754645 119.292716,35.3454098 119.292716,36.3997674 L119.292716,36.3997674 L119.292716,65.978011 C119.289605,99.1791325 99.8403913,129.140732 69.9448472,141.996889 L69.9448472,141.996889 L61.4303724,145.761997 C61.0675652,145.922842 60.6794146,146.000813 60.2921141,145.996125 Z" id="Combined-Shape-Copy-6" fill="url(#linearGradient-26)" fill-rule="nonzero"></path>
                        <path d="M60.306745,18.6157138 L60.3063495,130.177394 C60.0543065,130.160008 59.8046223,130.099969 59.5685941,129.997368 L59.5685941,129.997368 L53.5111402,127.36629 C29.9820832,117.111676 14.7673748,93.9552128 14.7411898,68.3590685 L14.7411898,68.3590685 L14.7411898,44.6603539 C14.7411898,43.8462985 15.185087,43.098113 15.9008094,42.7066205 C24.4835639,40.8403662 32.6601809,37.7850165 40.4306606,33.5405713 C52.0863801,27.1739035 59.5411624,18.8690848 59.5411624,18.8690848 C59.7824426,18.7370406 60.0420061,18.6525433 60.306745,18.6157138 Z" id="Combined-Shape-Copy-5" fill="#757AE9" fill-rule="nonzero" opacity="0.100000001"></path>
                        <path d="M60.3057435,18.6158534 C60.7664267,18.5515525 61.2428333,18.6316078 61.6658848,18.8566566 C61.6658848,18.8566566 71.0164545,27.9385533 81.5265446,33.520594 C88.5332713,37.2419545 96.8738073,40.2998206 106.548153,42.6941923 C107.276344,43.0807134 107.731464,43.8375986 107.731464,44.6603539 L107.731464,44.6603539 L107.731464,67.7413803 C107.72897,93.6494758 92.1376965,117.029649 68.1722237,127.061796 L68.1722237,127.061796 L61.3466777,129.999853 C61.0158073,130.142642 60.6586432,130.201734 60.3061014,130.177377 Z" id="Combined-Shape" fill="#757AE9" fill-rule="nonzero" opacity="0.200000003"></path>
                        <path d="M53.0942154,125.36629 L59.0865286,127.997368 C59.6465349,128.243449 60.2842512,128.244691 60.845491,127.999853 L67.5976364,125.061796 C91.305389,115.029649 106.728997,91.6494758 106.731464,65.7413803 L106.73272,42.8038322 C107.352429,43.2135314 107.731464,43.9095135 107.731464,44.6603539 L107.731464,44.6603539 L107.731464,67.7413803 C107.72897,93.6494758 92.1376965,117.029649 68.1722237,127.061796 L68.1722237,127.061796 L61.3466777,129.999853 C60.7793368,130.244691 60.1346881,130.243449 59.5685941,129.997368 L59.5685941,129.997368 L53.5111402,127.36629 C29.9820832,117.111676 14.7673748,93.9552128 14.7411898,68.3590685 L14.7411898,68.3590685 L14.7411898,66.3590685 C14.7670932,91.9552128 29.8181855,115.111676 53.0942154,125.36629 Z" id="Combined-Shape" fill="url(#linearGradient-27)" fill-rule="nonzero" opacity="0.5"></path>
                        <path d="M62.0454342,103.45454 L62.066741,98.6605107 C71.0795165,98 76.2357616,92.8437549 76.2357616,85.9403524 C76.2357616,78.078144 69.2258251,75.0312719 63.6860576,73.6676368 L62.1306614,73.2628077 L62.173275,59.5838435 C66.1576462,60.1165134 68.8849163,62.3324204 69.2897455,65.8267352 L75.6391712,65.8267352 C75.4687168,59.3281619 70.0994038,54.470212 62.1945818,53.831008 L62.2158886,48.9091377 L58.2102106,48.9091377 L58.1889038,53.8736216 C50.5397633,54.6406664 44.9360755,59.4133891 44.9360755,66.2954848 C44.9360755,72.3679222 49.2826623,75.9261574 56.2925988,77.8224624 L58.1249834,78.3125188 L58.0823698,92.8224481 C53.9275442,92.311085 50.7102177,90.0525644 50.369309,85.9403524 L43.7642016,85.9403524 C44.1690308,93.2911977 49.4744234,98.0213068 58.061063,98.6605107 L58.0397562,103.45454 L62.0454342,103.45454 Z M58.1462902,72.1974678 C54.9715773,71.2599687 51.4772624,69.5767317 51.4985692,65.9119624 C51.4985692,62.7159427 54.0340782,60.2230474 58.167597,59.6051503 L58.1462902,72.1974678 Z M62.0880478,92.8224481 L62.1306614,79.4204723 C66.4559413,80.6136529 69.7158814,82.190356 69.7158814,85.876432 C69.7158814,89.6051216 66.6050889,92.2258578 62.0880478,92.8224481 Z" id="$-copy-2" fill="#F1F1FC" fill-rule="nonzero"></path>
                        <path d="M62.0454342,101.45454 L62.066741,96.6605107 C71.0795165,96 76.2357616,90.8437549 76.2357616,83.9403524 C76.2357616,76.078144 69.2258251,73.0312719 63.6860576,71.6676368 L62.1306614,71.2628077 L62.173275,57.5838435 C66.1576462,58.1165134 68.8849163,60.3324204 69.2897455,63.8267352 L75.6391712,63.8267352 C75.4687168,57.3281619 70.0994038,52.470212 62.1945818,51.831008 L62.2158886,46.9091377 L58.2102106,46.9091377 L58.1889038,51.8736216 C50.5397633,52.6406664 44.9360755,57.4133891 44.9360755,64.2954848 C44.9360755,70.3679222 49.2826623,73.9261574 56.2925988,75.8224624 L58.1249834,76.3125188 L58.0823698,90.8224481 C53.9275442,90.311085 50.7102177,88.0525644 50.369309,83.9403524 L43.7642016,83.9403524 C44.1690308,91.2911977 49.4744234,96.0213068 58.061063,96.6605107 L58.0397562,101.45454 L62.0454342,101.45454 Z M58.1462902,70.1974678 C54.9715773,69.2599687 51.4772624,67.5767317 51.4985692,63.9119624 C51.4985692,60.7159427 54.0340782,58.2230474 58.167597,57.6051503 L58.1462902,70.1974678 Z M62.0880478,90.8224481 L62.1306614,77.4204723 C66.4559413,78.6136529 69.7158814,80.190356 69.7158814,83.876432 C69.7158814,87.6051216 66.6050889,90.2258578 62.0880478,90.8224481 Z" id="$" fill="#19CEAF" fill-rule="nonzero"></path>
                        <path d="M62.2158886,46.9091377 L62.1945818,51.831008 C70.0994038,52.470212 75.4687168,57.3281619 75.6391712,63.8267352 L75.6391712,63.8267352 L69.2897455,63.8267352 C68.8849163,60.3324204 66.1576462,58.1165134 62.173275,57.5838435 L62.173275,57.5838435 L62.1306614,71.2628077 L63.6860576,71.6676368 C69.2258251,73.0312719 76.2357616,76.078144 76.2357616,83.9403524 C76.2357616,90.8437549 71.0795165,96 62.066741,96.6605107 L62.066741,96.6605107 L62.0454342,101.45454 L60.2922016,101.454324 L60.2922016,46.9083244 L62.2158886,46.9091377 Z M62.1306614,77.4204723 L62.0880478,90.8224481 C66.6050889,90.2258578 69.7158814,87.6051216 69.7158814,83.876432 C69.7158814,80.190356 66.4559413,78.6136529 62.1306614,77.4204723 L62.1306614,77.4204723 Z" id="Combined-Shape" fill="#757AE9"></path>
                    </g>
                    <g id="Group-63" transform="translate(197.000000, 67.000000)">
                        <g id="Rectangle-3">
                            <mask id="mask-29" fill="white">
                                <use xlink:href="#path-28"></use>
                            </mask>
                            <rect stroke="#FFFFFF" x="-0.5" y="-0.5" width="181" height="121" rx="4"></rect>
                            <path d="M89.0872274,18 L165,18 L165,18 L145.73533,95.6337457 C141.308452,113.473402 125.293485,126 106.912773,126 L31,126 L31,126 L50.2646702,48.3662543 C54.6915479,30.5265981 70.7065152,18 89.0872274,18 Z" id="Rectangle-Copy-100" fill="url(#linearGradient-30)" opacity="0.100000001" mask="url(#mask-29)"></path>
                            <path d="M123.087227,79 L199,79 L199,79 L179.73533,156.633746 C175.308452,174.473402 159.293485,187 140.912773,187 L65,187 L65,187 L84.2646702,109.366254 C88.6915479,91.5265981 104.706515,79 123.087227,79 Z" id="Rectangle-Copy-99" fill="url(#linearGradient-30)" opacity="0.100000001" mask="url(#mask-29)"></path>
                            <path d="M112.087227,-67 L188,-67 L188,-67 L168.73533,10.6337457 C164.308452,28.4734019 148.293485,41 129.912773,41 L54,41 L54,41 L73.2646702,-36.6337457 C77.6915479,-54.4734019 93.7065152,-67 112.087227,-67 Z" id="Rectangle-Copy-101" fill="url(#linearGradient-31)" opacity="0.100000001" mask="url(#mask-29)"></path>
                        </g>
                        <g id="Rectangle-Copy-65" transform="translate(24.000000, 20.000000)">
                            <mask id="mask-33" fill="white">
                                <use xlink:href="#path-32"></use>
                            </mask>
                            <use id="Rectangle-Copy-62" fill="#D1DDFF" fill-rule="nonzero" xlink:href="#path-32"></use>
                            <path d="M23.2682787,6.18181818 L15.3184378,6.18181818 C14.9838761,6.18181818 14.6962718,6.29645016 14.4992604,6.50119078 C14.3038611,6.70425603 14.2027956,6.99132224 14.2196722,7.31873754 L14.2950653,8.30956364 C14.3918087,8.72387985 14.6469162,9.09620046 14.9782905,9.36821743 C15.3131453,9.64309147 15.7288413,9.81818182 16.1494228,9.81818182 L24.0992637,9.81818182 C24.4338254,9.81818182 24.7214297,9.70354984 24.9184411,9.49880922 C25.1138403,9.29574397 25.2149059,9.00867776 25.1980292,8.68126246 L25.1226362,7.69043636 C25.0258928,7.27612015 24.7707852,6.90379954 24.4394109,6.63178257 C24.1045561,6.35690853 23.6888602,6.18181818 23.2682787,6.18181818 Z" id="Rectangle" stroke="#FEFEFF" stroke-width="0.727272727" fill-rule="nonzero" mask="url(#mask-33)"></path>
                            <path d="M5.08646051,6.18181818 L-2.86338038,6.18181818 C-3.19794207,6.18181818 -3.48554642,6.29645016 -3.6825578,6.50119078 C-3.87795705,6.70425603 -3.97902261,6.99132224 -3.96214593,7.31873754 L-3.88675291,8.30956364 C-3.79000949,8.72387985 -3.53490195,9.09620046 -3.20352765,9.36821743 C-2.86867284,9.64309147 -2.4529769,9.81818182 -2.03239539,9.81818182 L5.9174455,9.81818182 C6.25200719,9.81818182 6.53961154,9.70354984 6.73662292,9.49880922 C6.93202217,9.29574397 7.03308773,9.00867776 7.01621105,8.68126246 L6.94081803,7.69043636 C6.84407461,7.27612015 6.58896707,6.90379954 6.25759277,6.63178257 C5.92273796,6.35690853 5.50704201,6.18181818 5.08646051,6.18181818 Z" id="Rectangle-Copy-66" stroke="#FEFEFF" stroke-width="0.727272727" fill-rule="nonzero" mask="url(#mask-33)"></path>
                            <path d="M5.74750837,2.54545455 L-2.20233253,2.54545455 C-2.53689421,2.54545455 -2.82449857,2.66008652 -3.02150994,2.86482714 C-3.21690919,3.06789239 -3.31797475,3.3549586 -3.30109807,3.6823739 L-3.22570506,4.6732 C-3.12896163,5.08751621 -2.87385409,5.45983682 -2.54247979,5.7318538 C-2.20762499,6.00672783 -1.79192904,6.18181818 -1.37134753,6.18181818 L6.57849336,6.18181818 C6.91305505,6.18181818 7.2006594,6.06718621 7.39767077,5.86244559 C7.59307003,5.65938034 7.69413559,5.37231412 7.67725891,5.04489883 L7.60186589,4.05407272 C7.50512247,3.63975651 7.25001492,3.26743591 6.91864062,2.99541893 C6.58378582,2.7205449 6.16808987,2.54545455 5.74750837,2.54545455 Z" id="Rectangle-Copy-67" stroke="#FEFEFF" stroke-width="0.727272727" fill-rule="nonzero" mask="url(#mask-33)"></path>
                            <path d="M6.69343701,9.45454545 C5.85410487,11.8797314 7.08127587,13.215603 10.37495,13.4621602 C13.6686241,13.7087175 15.0187459,12.132251 14.4253155,8.73276096" id="Path-15" stroke="#FEFEFF" stroke-width="0.727272727" fill-rule="nonzero" mask="url(#mask-33)"></path>
                            <line x1="13.8254896" y1="12.7006146" x2="23.2776131" y2="12.7539309" id="Path-19" stroke="#FEFEFF" stroke-width="0.727272727" stroke-linecap="round" stroke-linejoin="round" fill-rule="nonzero" mask="url(#mask-33)"></line>
                            <line x1="-2.17451041" y1="12.7006146" x2="7.27761307" y2="12.7539309" id="Path-19-Copy" stroke="#FEFEFF" stroke-width="0.727272727" stroke-linecap="round" stroke-linejoin="round" fill-rule="nonzero" mask="url(#mask-33)"></line>
                        </g>
                        <g id="Group-56" transform="translate(132.000000, 84.000000)" fill-rule="nonzero" opacity="0.340000004">
                            <circle id="Oval-Copy-32" fill="#FEFEFF" cx="16" cy="8" r="8"></circle>
                            <circle id="Oval" fill="#19CEAF" cx="8" cy="8" r="8"></circle>
                        </g>
                        <rect id="Rectangle" fill="#D1DDFF" fill-rule="nonzero" opacity="0.5" x="24" y="54" width="132" height="12" rx="2"></rect>
                        <rect id="Rectangle-Copy-80" fill="#D1DDFF" fill-rule="nonzero" opacity="0.5" x="24" y="87" width="44" height="10" rx="2"></rect>
                    </g>
                    <g id="Group-57" transform="translate(128.000000, 52.000000)">
                        <g id="Group-63-Copy" fill-rule="nonzero">
                            <g id="Rectangle-Copy-93">
                                <use fill="black" fill-opacity="1" filter="url(#filter-35)" xlink:href="#path-34"></use>
                                <use fill="#D4DFFC" xlink:href="#path-34"></use>
                            </g>
                            <rect id="Rectangle" fill="#FFFFFF" x="0" y="0" width="134" height="165" rx="4"></rect>
                            <rect id="Rectangle" fill="#D1DDFF" opacity="0.600000024" x="20" y="123" width="50" height="4"></rect>
                            <rect id="Rectangle-Copy-84" fill="#D1DDFF" opacity="0.600000024" x="20" y="133" width="30" height="4"></rect>
                            <rect id="Rectangle-Copy-94" fill="#D1DDFF" opacity="0.600000024" x="20" y="143" width="40" height="4"></rect>
                            <rect id="Rectangle-Copy-97" fill="#D1DDFF" opacity="0.600000024" x="104" y="123" width="10" height="4"></rect>
                            <rect id="Rectangle-Copy-96" fill="#D1DDFF" opacity="0.600000024" x="94" y="133" width="20" height="4"></rect>
                            <rect id="Rectangle-Copy-95" fill="#D1DDFF" opacity="0.600000024" x="97" y="143" width="17" height="4"></rect>
                        </g>
                        <g id="Group-53" transform="translate(28.000000, 20.000000)">
                            <text id="100%" font-family="Inter-Bold, Inter" font-size="10.666666" font-weight="bold" fill="#757AE9">
                                <tspan x="25.4659076" y="83.333329">100%</tspan>
                            </text>
                            <path d="M40,-0.333333313 C28.862257,-0.333333313 18.7789237,4.18112853 11.4800261,11.4800261 C4.18112853,18.7789237 -0.333333313,28.862257 -0.333333313,40 C-0.333333313,51.2142538 4.24336911,61.3595624 11.6308435,68.6700012 L39.9999976,40.3015073 L68.3691547,68.6700011 C75.7566297,61.3595624 80.3333333,51.2142537 80.3333333,40 C80.3333333,28.8622576 75.8188708,18.7789248 68.5199733,11.4800273 C61.221075,4.181129 51.1377412,-0.333333313 40,-0.333333313 Z" id="Combined-Shape" stroke="#FFFFFF" stroke-width="0.666666627" fill="#DADFFA" fill-rule="nonzero" opacity="0.5"></path>
                            <g id="Oval-Copy-6" fill-rule="nonzero">
                                <use fill="black" fill-opacity="1" filter="url(#filter-37)" xlink:href="#path-36"></use>
                                <use fill="#FFFFFF" xlink:href="#path-36"></use>
                            </g>
                            <polyline id="Path" stroke="#19CEAF" stroke-width="3.99999976" stroke-linejoin="round" transform="translate(39.999998, 36.666664) rotate(-45.000000) translate(-39.999998, -36.666664) " points="50.6666636 41.9999975 29.3333316 41.9999975 29.3333316 31.3333315"></polyline>
                        </g>
                    </g>
                    <g id="Group-41-Copy-5" transform="translate(178.000000, 270.000000)" fill-rule="nonzero">
                        <g id="Rectangle">
                            <use fill="black" fill-opacity="1" filter="url(#filter-39)" xlink:href="#path-38"></use>
                            <use fill="#FFFFFF" xlink:href="#path-38"></use>
                        </g>
                        <rect id="Rectangle" fill="#D1DDFF" x="17.6000004" y="13.2000003" width="66.0000014" height="6.60000014"></rect>
                        <rect id="Rectangle-Copy-85" fill="#D1DDFF" opacity="0.600000024" x="136.400003" y="13.2000003" width="44.000001" height="4.4000001"></rect>
                        <rect id="Rectangle-Copy-86" fill="#19CEAF" opacity="0.800000012" x="147.400003" y="22.0000005" width="33.0000007" height="8.80000019"></rect>
                        <rect id="Rectangle-Copy-84" fill="#D1DDFF" opacity="0.600000024" x="17.6000004" y="26.4000006" width="44.000001" height="4.4000001"></rect>
                    </g>
                    <ellipse id="Oval" fill="#E5ECFF" fill-rule="nonzero" opacity="0.600000024" cx="125" cy="472.5" rx="78" ry="11.5"></ellipse>
                    <g id="Group-48" transform="translate(40.000000, 47.000000)">
                        <g id="Group-47" transform="translate(13.000000, 212.498168)">
                            <path d="M10.0865599,194.648066 C9.29215023,197 8.59592622,209.23597 9.66692212,209.971865 C10.737918,210.707759 22.4362989,212.231295 24.2324311,212.473095 C27.4305364,212.903632 30.3448131,210.089079 25.5410722,206.215512 C25.1511833,204.006307 24.5135483,201.403198 23.8114595,198.895507 C22.6566671,194.770867 20.8067851,190.973425 18.2618135,187.50318 C13.3412509,190.698481 10.6161663,193.08011 10.0865599,194.648066 Z" id="Path-78" fill="#051E44"></path>
                            <g id="Path-28">
                                <g id="Path-68">
                                    <mask id="mask-41" fill="white">
                                        <use xlink:href="#path-40"></use>
                                    </mask>
                                    <use id="Path-25" fill="#FFBE90" xlink:href="#path-40"></use>
                                    <path d="M-0.517042407,77.5218757 C13.2069563,86.3846978 26.1479824,90.2577962 38.3060358,89.141171 C50.4640892,88.0245457 50.4640892,59.8004435 38.3060358,4.46886447 C0.719570978,15.59334 -17.2228533,22.5810746 -15.521237,25.4320684 C-13.8196207,28.2830622 -8.81822248,45.6463313 -0.517042407,77.5218757 Z" id="Path-91" fill="#ED9276" mask="url(#mask-41)"></path>
                                </g>
                            </g>
                            <path d="M11.5,198.171766 C11.8721532,207.529574 12.0582299,212.507065 12.0582299,213.104239 C12.0582299,214 15.1527678,213.934041 15.1527678,213.104239 C15.1527678,212.274437 15.7960603,204.060762 16.68151,201.567697 C17.2718099,199.905654 15.5446398,198.773677 11.5,198.171766 Z" id="Path-79" fill="#051E44"></path>
                        </g>
                        <g id="Group-47-Copy" transform="translate(36.000000, 231.498168)">
                            <path d="M45.1329544,183 C44.1973904,183.561775 43.2540659,185.48264 42.3029807,188.762593 C41.6212741,191.113557 42.3029807,194.916507 42.3029807,199.539134 C42.761478,199.609034 43.8081164,200.105758 44.8172524,199.539134 C45.9944562,196.835665 45.6920719,193.957868 47.6870716,193.569491 C49.096717,193.295069 57.0882243,198.441466 65.052924,199.539134 C73.0176238,200.636802 77.9607577,193.04009 73.2781963,191.403616 C70.0300376,190.268441 64.9808829,188.644802 58.1307322,186.532699 L45.1329544,183 Z" id="Path-26" fill="#051E44" fill-rule="nonzero"></path>
                            <g id="Path-28">
                                <g id="Path-68">
                                    <mask id="mask-43" fill="white">
                                        <use xlink:href="#path-42"></use>
                                    </mask>
                                    <use id="Path-25" fill="#FFBE90" xlink:href="#path-42"></use>
                                    <path d="M20.5621775,68.8073888 C30.36944,73.1500371 44.2144934,74.456751 62.0973375,72.7275305 C79.9801817,70.9983099 70.4621078,45.7654401 33.5431159,-2.97107905 L20.5621775,68.8073888 Z" id="Path-84" fill="#ED9276" mask="url(#mask-43)"></path>
                                </g>
                            </g>
                        </g>
                        <g id="Group-50" transform="translate(15.200774, 135.946196) scale(-1, 1) translate(-15.200774, -135.946196) translate(0.200774, 64.446196)">
                            <g id="Group-49" transform="translate(23.254465, 128.916314) scale(-1, 1) translate(-23.254465, -128.916314) translate(16.754465, 115.416314)">
                                <g id="Path-96" transform="translate(0.000000, -0.000000)">
                                    <mask id="mask-45" fill="white">
                                        <use xlink:href="#path-44"></use>
                                    </mask>
                                    <use id="Path-94" fill="#FFBE90" xlink:href="#path-44"></use>
                                    <path d="M11.09949,2.39267341 C11.09949,6.08240779 12.0366482,6.95640481 12.0366482,9.81874399 C12.0366482,11.7269701 11.8756623,14.5825542 11.5536906,18.3854962 C10.3025943,18.8551826 9.50674279,18.2918517 9.16613617,16.6955035 C8.65522624,14.3009813 8.20753235,12.3250474 7.35826119,10.818744 C6.50899003,9.31244059 5.35342685,4.2974451 6.43120844,2.39267341 C7.50899003,0.48790172 11.09949,-1.29706098 11.09949,2.39267341 Z" id="Path-95" fill="#ED9276" mask="url(#mask-45)"></path>
                                    <path d="M5.99506423,7.38173441 C6.25078889,9.28323791 5.78070772,11.0543416 4.58482073,12.6950455" id="Path-97" stroke="#E07144" stroke-width="0.5" stroke-linecap="round" stroke-linejoin="round" mask="url(#mask-45)"></path>
                                    <line x1="3.03942093" y1="24.6965074" x2="2.64608525" y2="16.5489122" id="Path-98" stroke="#E07144" stroke-width="0.5" stroke-linecap="round" stroke-linejoin="round" mask="url(#mask-45)"></line>
                                    <line x1="5.43463585" y1="25.9096375" x2="5.02353002" y2="16.8307819" id="Path-99" stroke="#E07144" stroke-width="0.5" stroke-linecap="round" stroke-linejoin="round" mask="url(#mask-45)"></line>
                                    <line x1="7.83652763" y1="25.4987329" x2="7.83652763" y2="16.8307819" id="Path-100" stroke="#E07144" stroke-width="0.5" stroke-linecap="round" stroke-linejoin="round" mask="url(#mask-45)"></line>
                                </g>
                                <path d="M10.8692717,2.72479566 C10.8692717,6.41453004 12.0366482,6.95640481 12.0366482,9.81874399 C12.0366482,11.7269701 12.2089957,14.2492208 12.5536906,17.3854962 C11.3025943,17.8551826 10.5067428,17.2918517 10.1661362,15.6955035 C9.65522624,13.3009813 9.14166838,11.5537237 8.2638644,10.8784453 C7.38606041,10.2031668 4.91728264,7.59336536 5.99506423,5.68859367 C7.07284582,3.78382199 10.8692717,-0.964938724 10.8692717,2.72479566 Z" id="Path-95" fill="#FFBE90"></path>
                            </g>
                            <g id="Path-76" transform="translate(0.000000, -0.000000)">
                                <mask id="mask-47" fill="white">
                                    <use xlink:href="#path-46"></use>
                                </mask>
                                <use id="Path-75" fill="#757AE9" xlink:href="#path-46"></use>
                                <path d="M14.5,16.0571294 C16.3832573,35.7872909 16.8828601,49.7682478 15.9988086,58 C15.1147571,66.2317522 13.4726956,71.777718 11.0726241,74.6378973 L-8.13625383,61.9850779 L14.5,16.0571294 Z" id="Path-77" fill="url(#linearGradient-48)" opacity="0.300000012" mask="url(#mask-47)"></path>
                            </g>
                        </g>
                        <g id="Path-35" transform="translate(11.058824, 146.467033)">
                            <mask id="mask-50" fill="white">
                                <use xlink:href="#path-49"></use>
                            </mask>
                            <use id="Path-16" fill="#051E44" fill-rule="nonzero" xlink:href="#path-49"></use>
                            <path d="M17.955812,16.9737678 C31.0450761,20.2896449 41.630342,21.3566659 49.7116098,20.174831 C61.8335115,18.4020787 63.3630639,15.7233472 64.6206869,14.1957482" stroke="#2F3C87" stroke-width="3.19999981" fill-rule="nonzero" mask="url(#mask-50)"></path>
                            <path d="M45.503354,18.4414503 L45.8145363,22.8904762 C47.8984758,22.6607667 49.4607379,22.4788722 50.5013228,22.3447926 C51.5419077,22.2107129 52.7676819,22.0333683 54.1786454,21.8127586 L53.6254704,17.2879121 L45.503354,18.4414503 Z" id="Path-36" stroke="#504FC1" stroke-width="0.799999952" stroke-linecap="round" stroke-linejoin="round" fill-rule="nonzero" mask="url(#mask-50)"></path>
                        </g>
                        <g id="Group-22-Copy" transform="translate(73.000000, 93.000000) scale(-1, 1) translate(-73.000000, -93.000000) translate(8.000000, 0.000000)">
                            <g id="Group-17">
                                <g id="Path-88" transform="translate(52.454201, 62.944918)">
                                    <mask id="mask-52" fill="white">
                                        <use xlink:href="#path-51"></use>
                                    </mask>
                                    <use id="Path-33" fill="#757AE9" xlink:href="#path-51"></use>
                                    <path d="M7.51928162,2.00908238 C15.0991993,7.82329292 20.6377053,12.2178397 24.1347996,15.1927228 C29.3804411,19.6550474 35.9304578,34.8275637 54.3901762,38.3337017 C66.3771044,40.6104333 72.6038328,26.1584459 78.2263844,18.1843724 C78.3263094,18.0426557 78.8902827,23.2620331 79.9183044,33.8425044 L79.9183044,-9.21091766 L7.51928162,2.00908238 Z" id="Path-89" fill="url(#linearGradient-53)" opacity="0.300000012" mask="url(#mask-52)"></path>
                                    <path d="M-8.96420045,91.1538914 C6.94027404,99.0430039 16.2096648,93.7194009 18.8439717,75.1830826 C22.7954322,47.3786051 22.6675402,30.3081098 16.7734174,21.0935437 C12.8440022,14.9504996 4.26479627,38.3039489 -8.96420045,91.1538914 Z" id="Path-90" fill="url(#linearGradient-54)" opacity="0.300000012" mask="url(#mask-52)"></path>
                                </g>
                                <g id="Group-62" transform="translate(59.198000, 0.000000)">
                                    <g id="Path-13" transform="translate(0.373445, 0.169543)">
                                        <g id="Group-24" transform="translate(0.438476, 0.004494)">
                                            <path d="M17.926661,44.7704397 C20.7353475,52.7948905 21.6715764,60.0002449 20.7353475,66.3865029 C19.7991187,72.7727609 29.1735202,75.664908 48.8585519,75.0629442 C48.4990141,72.3345804 46.2866471,68.2372257 42.221451,62.7708802 C38.1562548,57.3045347 35.2133066,48.0746363 33.3926065,35.0811848 L17.926661,44.7704397 Z" id="Path-40" stroke="#979797" stroke-width="1.122"></path>
                                            <path d="M29.0075865,5.87029 C32.7834995,7.51099596 36.9814084,9.94438746 37.616477,19.5752244 C37.8232002,22.7101886 37.153605,26.6865739 35.6076913,31.5043804 C32.5958943,39.0172437 29.146876,43.6652984 25.2606364,45.4485445 C19.4312771,48.1234137 11.8346041,54.2288679 8.19878899,49.438678 C6.62730097,47.368241 5.55714318,43.5542564 4.82705196,39.6654953 C2.78090032,40.0937685 1.93342792,39.8777571 2.28479974,39.0171303 C2.70087798,37.998016 3.11926277,34.9683514 3.53995411,29.9281365 C3.45027155,28.953618 3.38831799,28.19288 3.34477194,27.7360914 C3.07886208,24.9467554 1.75739084,18.472747 3.69674726,12.2253751 C5.63610369,5.97800331 19.2523506,1.63145455 29.0075865,5.87029 Z" id="Combined-Shape" fill="#FFBE90" fill-rule="nonzero"></path>
                                            <path d="M3.59410434,29.268428 C3.1551608,34.704733 2.71872593,37.9543005 2.28479974,39.0171303 C1.93758325,39.8675793 2.76102352,40.0885692 4.75512055,39.6801001" id="Path" stroke="#E07144" stroke-width="0.691199978" stroke-linecap="round" stroke-linejoin="round"></path>
                                            <path d="M3.78024435,8.16513648 C0.393118105,15.988043 0.24289074,22.0149745 3.32956226,26.245931 C7.95956953,32.5923657 7.5096299,31.3603935 8.41025162,29.9778237 C9.31087335,28.5952539 12.2065309,28.1099949 12.2065309,31.9485609 C12.2065309,35.7871269 5.01589696,54.9908257 6.61054468,64.286975 C8.2051924,73.5831244 24.8066715,78.213787 29.2148455,83.5588311 C33.6230196,88.9038751 53.7495216,107.934141 63.5511068,92.2547452 C73.352692,76.5753499 64.3975304,60.90629 55.9429679,53.8673209 C47.4884054,46.8283518 46.4791687,36.5475954 44.3392479,21.2499629 C42.1993271,5.95233045 33.5714192,1.26503394 21.4543721,1 C13.3763407,0.823310705 7.48496475,3.21168953 3.78024435,8.16513648 Z" id="Path-39" fill="#051E44"></path>
                                            <path d="M7.73405698,31.1913181 C8.58565959,27.9026527 10.9395035,28.2100528 11.6469317,29.7006854 C12.3543599,31.1913181 11.1595546,34.475328 9.69049435,37.1771131 C8.2214341,39.8788982 6.88245438,34.4799834 7.73405698,31.1913181 Z" id="Path-81" fill="#FFBE90"></path>
                                            <path d="M3.78024435,9.28713648 C0.305343786,14.7043742 -0.726896303,20.0513556 0.683524084,25.3280808 C2.09394447,30.604806 4.93866887,34.6995034 9.21769727,37.6121729" id="Path-55" stroke="#051E44" stroke-width="1.122" stroke-linecap="round" stroke-linejoin="round"></path>
                                            <path d="M8.62552814,32.434416 C8.7240147,31.4896149 8.92140441,30.9356411 9.21769727,30.7724947 C9.66213656,30.5277751 10.4572131,32.7003661 9.93113619,33.8907755" id="Path-71" stroke="#E07144" stroke-width="0.5" stroke-linecap="round" stroke-linejoin="round"></path>
                                        </g>
                                    </g>
                                </g>
                                <g id="Path-53" transform="translate(0.807633, 75.456509)">
                                    <mask id="mask-56" fill="white">
                                        <use xlink:href="#path-55"></use>
                                    </mask>
                                    <use id="Path-34" fill="#FF9D73" xlink:href="#path-55"></use>
                                    <path d="M49.8127727,38.1058315 C54.8360216,43.809371 61.5696894,46.6611407 70.0137759,46.6611407 C78.4578625,46.6611407 80.2166276,42.351181 75.2900713,33.7312616 L46.6940885,27.0728863 L49.8127727,38.1058315 Z" id="Path-54" fill="#ED6F4B" mask="url(#mask-56)"></path>
                                </g>
                                <path d="M62.3111493,74.9278451 C57.7516145,79.598733 51.7271825,99.7585455 44.2378534,135.407283 C31.0113854,125.848257 22.9383317,119.482243 20.0186923,116.30924 C17.9086379,114.016078 15.5952058,117.267666 13.0783963,126.064004 C34.3202497,152.472689 48.0811343,163.176673 54.36105,158.175956 C63.7809236,150.67488 74.3642807,104.226979 74.3642807,93.2528503 C74.3642807,83.3581379 66.2729623,70.8692766 62.3111493,74.9278451 Z" id="Path-34" fill="#757AE9"></path>
                            </g>
                        </g>
                    </g>
                </g>
            </g>
        </g>
    </g>
</svg>